<svg width="13" height="14" viewBox="0 0 13 14" fill="none" xmlns="http://www.w3.org/2000/svg">
<path d="M11.68 1.82C10.12 1.14 8.38 0.759999 6.54 0.759999C3.64 0.759999 0.88 1.72 0.88 4.32C0.88 6.8 3.42 7.34 6.22 7.78C8.54 8.14 10.42 8.4 10.42 9.8C10.42 11.22 8.46 11.74 6.32 11.74C4.44 11.74 2.76 11.34 1.24 10.72L0.78 12.18C2.34 12.86 4.42 13.24 6.22 13.24C9.02 13.24 12.1 12.32 12.1 9.72C12.1 7.32 9.52 6.74 6.22 6.22C4.38 5.92 2.56 5.7 2.56 4.26C2.56 2.82 4.46 2.32 6.48 2.32C8.16 2.32 9.72 2.66 11.1 3.28L11.68 1.82Z" fill="#AB8A1B"/>
</svg>
