<svg width="20" height="23" viewBox="0 0 20 23" fill="none" xmlns="http://www.w3.org/2000/svg">
<g clip-path="url(#clip0_586_10131)">
<path d="M20.0006 13.2444C19.817 13.2371 19.6333 13.2469 19.4515 13.2737C19.0639 13.3144 18.6791 13.3784 18.299 13.4654C16.3261 13.8951 14.3791 14.4393 12.4679 15.0951C8.01671 16.5707 6.54575 17.4735 5.90465 17.8154C5.78816 17.3954 6.45466 17.2967 6.87267 16.6818C7.15637 16.3366 7.4195 15.9789 7.71387 15.642C8.24683 15.033 8.7248 14.3848 9.234 13.7559C10.877 11.7277 11.6887 10.5552 13.0731 8.32961C14.1373 6.61928 15.3089 4.54054 15.5122 2.47015C15.5975 1.60173 15.2786 0.621311 14.9326 0.193894C14.8612 0.10683 14.8702 0.28931 14.835 0.319259C14.7833 0.362346 14.6596 0.076103 14.637 0.042925C14.483 -0.182863 14.5238 0.553285 14.5246 0.601382C14.5217 0.97736 14.462 1.35068 14.3476 1.70839C14.1138 2.48674 13.7359 3.21031 13.3678 3.9282C11.9534 6.68564 10.0595 9.2507 8.21229 11.7144C6.34224 14.2083 5.04827 15.8736 2.9009 18.1232C2.62458 18.4127 1.62432 19.4767 1.38407 19.7153C1.11522 19.9816 0.900056 20.3103 0.629779 20.5684C0.423963 20.765 0.186246 20.8729 0.0623828 21.1501C-0.0105492 21.3143 0.0378522 21.3832 0.0820735 21.5398C0.123985 21.6874 0.0279522 21.8078 0.00672163 21.9488C-0.0318895 22.2086 0.131355 22.5572 0.279749 22.7562C0.696221 23.3172 1.28738 22.7704 1.7022 22.5073C2.04827 22.2874 4.68581 20.5116 5.70257 19.934C6.79633 19.3133 7.91055 18.7524 9.05921 18.2428C11.3623 17.2205 13.6621 16.4272 16.1497 16.0837C16.558 16.0272 16.8056 15.9492 17.2204 15.9542C17.3911 15.9559 17.8174 15.9319 17.9905 15.9143C18.2038 15.8933 18.3436 15.7139 18.4872 15.5868C19.1843 14.9591 19.4455 13.9448 20.0006 13.2444Z" fill="#AB8A1B"/>
</g>
<defs>
<clipPath id="clip0_586_10131">
<rect width="20" height="23" fill="white"/>
</clipPath>
</defs>
</svg>
